/vscmnt/brussel_pixiu_data/_data_brussel/112/vsc11236/PredSimResults/SUBJ07mtu3D/worker8.mot
version=1
nRows=11
nColumns=50
inDegrees=yes
endheader
                time	         pelvis_tilt	         pelvis_list	     pelvis_rotation	           pelvis_tx	           pelvis_ty	           pelvis_tz	       hip_flexion_r	     hip_adduction_r	      hip_rotation_r	        knee_angle_r	       ankle_angle_r	         mtp_angle_r	       hip_flexion_l	     hip_adduction_l	      hip_rotation_l	        knee_angle_l	       ankle_angle_l	         mtp_angle_l	    lumbar_extension	      lumbar_bending	     lumbar_rotation	 ercspn_r/activation	 intobl_r/activation	 extobl_r/activation	    abd_r/activation	    add_r/activation	hamstrings_r/activation	bifemsh_r/activation	glut_max_r/activation	iliopsoas_r/activation	rect_fem_r/activation	  vasti_r/activation	gastroc_r/activation	 soleus_r/activation	tib_ant_r/activation	 ercspn_l/activation	 intobl_l/activation	 extobl_l/activation	    abd_l/activation	    add_l/activation	hamstrings_l/activation	bifemsh_l/activation	glut_max_l/activation	iliopsoas_l/activation	rect_fem_l/activation	  vasti_l/activation	gastroc_l/activation	 soleus_l/activation	tib_ant_l/activation	
          0.00000000	         -3.71968015	          0.02904842	          8.45116997	          0.00000000	          0.85019487	         -0.01325956	         30.07582001	         -2.26520759	         -4.05533542	         -7.89757219	          3.81971546	          0.26611078	        -14.77719519	          0.45622977	          4.19670576	         -9.12036009	          8.16840955	         27.66710702	        -10.59666330	         -1.66592930	         -1.53256923	          0.12378579	          0.14248303	          0.00999999	          0.02184415	          0.12838705	          0.05850997	          0.09472148	          0.08135377	          0.02414962	          0.01183793	          0.00999999	          0.00999999	          0.00999999	          0.38212839	          0.13642302	          0.00999999	          0.00999999	          0.03725749	          0.01106262	          0.01425531	          0.13410585	          0.01658930	          0.20446925	          0.01183793	          0.01069630	          0.12490168	          0.28409539	          0.01963828	
          0.01102761	         -3.72404905	          0.08480921	          8.43883088	          0.01575317	          0.84871500	         -0.01309691	         29.76478867	         -2.04969412	         -3.63791158	         -9.19300521	          3.49996625	          0.24871728	        -15.23125042	          0.41843543	          3.83667373	        -10.19017277	          7.21087558	         29.24621803	        -10.47701245	         -1.26744757	         -1.74165377	          0.10456704	          0.13035845	          0.00999999	          0.01845267	          0.10845392	          0.05653448	          0.09442614	          0.12974746	          0.02040020	          0.00999999	          0.00999999	          0.01658926	          0.01183792	          0.40992468	          0.15193928	          0.00999999	          0.00999999	          0.03147296	          0.02399311	          0.01204207	          0.11328483	          0.01401368	          0.17272375	          0.01000000	          0.00999999	          0.10550968	          0.26537971	          0.01658928	
          0.02205522	         -3.72113446	          0.13813633	          8.37455175	          0.03166003	          0.84744423	         -0.01284801	         29.38264775	         -1.88194713	         -3.24196266	        -10.42451304	          3.11551355	          0.24580271	        -15.54287793	          0.39261302	          3.43472918	        -11.53424332	          6.14185356	         30.76421273	        -10.35028528	         -0.86533661	         -1.94173366	          0.14006456	          0.11011925	          0.00999999	          0.10278167	          0.12416914	          0.05225971	          0.08730478	          0.13055382	          0.01723290	          0.00999999	          0.00999999	          0.01401365	          0.00999999	          0.47018741	          0.16514291	          0.00999999	          0.00999999	          0.02658653	          0.02026798	          0.01017246	          0.09569645	          0.01183794	          0.14590699	          0.01000002	          0.00999999	          0.08912845	          0.24312082	          0.01401366	
          0.03308284	         -3.71252296	          0.20730535	          8.26156974	          0.04753054	          0.84654434	         -0.01250091	         29.01919957	         -1.73273692	         -2.92162740	        -11.66900162	          2.66638346	          0.22747795	        -15.63422681	          0.39842348	          3.00155616	        -13.25905405	          4.93638404	         32.16127849	        -10.23751950	         -0.48023751	         -2.13086506	          0.14656449	          0.09302234	          0.00999999	          0.14765562	          0.14750661	          0.04465049	          0.07375001	          0.15055533	          0.01455736	          0.00999999	          0.00999999	          0.01183791	          0.00999999	          0.49231039	          0.19970389	          0.00999999	          0.00999999	          0.02245875	          0.02077466	          0.01000015	          0.08083880	          0.01000001	          0.12325375	          0.01000000	          0.00999999	          0.07529054	          0.21038995	          0.01183792	
          0.04411045	         -3.69837034	          0.28391986	          8.10674942	          0.06323342	          0.84613873	         -0.01206092	         28.73397216	         -1.58860600	         -2.65470352	        -13.07474606	          2.42561162	          0.20959672	        -15.43626863	          0.42579727	          2.54352823	        -15.46326785	          3.61650921	         33.28779847	        -10.14630955	         -0.10501482	         -2.30849333	          0.15445908	          0.07857987	          0.00999999	          0.18192040	          0.16850968	          0.04314261	          0.06229972	          0.16717525	          0.01229721	          0.00999999	          0.03489088	          0.00999999	          0.00999999	          0.49901633	          0.23196546	          0.00999999	          0.00999999	          0.01897185	          0.04471767	          0.01000011	          0.06828792	          0.00999999	          0.10411761	          0.00999999	          0.00999999	          0.06360107	          0.17772521	          0.00999999	
          0.05513806	         -3.68034977	          0.36753800	          7.91137899	          0.07868467	          0.84634805	         -0.01154389	         28.48373020	         -1.44962475	         -2.43864030	        -14.54819304	          2.41070282	          0.19069413	        -14.88387391	          0.47438694	          2.04984943	        -18.23798611	          2.19843743	         33.93143996	        -10.07802493	          0.25846629	         -2.47169714	          0.15772266	          0.06637971	          0.00999999	          0.20088076	          0.18630756	          0.04305937	          0.05262719	          0.17349287	          0.01038797	          0.00999999	          0.06256047	          0.00999999	          0.00999999	          0.48079433	          0.25311622	          0.00999999	          0.00999999	          0.01602632	          0.07148184	          0.01000006	          0.05768567	          0.00999999	          0.08795251	          0.00999999	          0.00999999	          0.05372649	          0.15013193	          0.00999999	
          0.06616567	         -3.66028555	          0.45801780	          7.67624594	          0.09385532	          0.84721874	         -0.01096892	         28.18858537	         -1.31230258	         -2.25673891	        -15.93832681	          2.62039566	          0.17660902	        -13.93367387	          0.53862025	          1.52054303	        -21.62982094	          0.64461633	         33.93343207	        -10.02831097	          0.60892656	         -2.61704328	          0.15352154	          0.05607372	          0.00999999	          0.20508354	          0.19472778	          0.04424687	          0.04445639	          0.17319410	          0.00999999	          0.00999999	          0.08140541	          0.00999999	          0.00999999	          0.44756743	          0.25836247	          0.00999999	          0.00999999	          0.01353810	          0.09307399	          0.01000006	          0.04872950	          0.00999999	          0.07429717	          0.00999999	          0.00999999	          0.04538502	          0.12682273	          0.00999999	
          0.07719328	         -3.63989470	          0.55231999	          7.40269530	          0.10874150	          0.84869976	         -0.01034772	         27.78653506	         -1.16983627	         -2.08265702	        -17.12046314	          3.00682491	          0.17572331	        -12.57712878	          0.60665446	          0.97955527	        -25.59162443	         -1.19632265	         33.30143298	         -9.99247049	          0.94785312	         -2.74185656	          0.12968608	          0.04736782	          0.00999999	          0.19933763	          0.19363736	          0.05054908	          0.03755418	          0.15916243	          0.00999999	          0.00999999	          0.10810617	          0.00999999	          0.00999999	          0.40402402	          0.26355239	          0.00999999	          0.00999999	          0.01143620	          0.10877298	          0.01000002	          0.04116386	          0.00999999	          0.06276193	          0.00999999	          0.00999999	          0.03833863	          0.10713248	          0.00999999	
          0.08822089	         -3.62117750	          0.64782670	          7.09136177	          0.12332780	          0.85069778	         -0.00967828	         27.23172111	         -1.01434974	         -1.87981234	        -17.99407469	          3.50776821	          0.20781171	        -10.83763721	          0.67114140	          0.46641845	        -30.01079988	         -3.39396098	         31.92252581	         -9.97096837	          1.27332411	         -2.84608009	          0.10955126	          0.04001359	          0.00999999	          0.20042184	          0.18091680	          0.05886660	          0.03172359	          0.13445117	          0.00999999	          0.00999999	          0.12942187	          0.00999999	          0.00999999	          0.35870458	          0.25564530	          0.00999999	          0.00999999	          0.00999999	          0.11644158	          0.01527595	          0.03477283	          0.00999999	          0.05301763	          0.00999999	          0.00999999	          0.03238624	          0.09049929	          0.03649751	
          0.09924851	         -3.60591806	          0.73750459	          6.74663398	          0.13757183	          0.85306961	         -0.00897844	         26.51781800	         -0.84026907	         -1.62277183	        -18.52879286	          4.05071170	          0.28603683	         -8.77761792	          0.73462622	          0.03109165	        -34.75153796	         -5.63545685	         29.33427812	         -9.96856412	          1.59094806	         -2.92992217	          0.09254254	          0.03380115	          0.00999999	          0.21006094	          0.15282801	          0.06688506	          0.02679825	          0.11357654	          0.00999999	          0.00999999	          0.14467373	          0.00999999	          0.00999999	          0.32162401	          0.26557469	          0.03629144	          0.00999999	          0.01172228	          0.09836308	          0.01290426	          0.02937407	          0.01401366	          0.04478622	          0.01658926	          0.00999999	          0.02735802	          0.07644854	          0.18496613	
          0.11027612	         -3.59458965	          0.81588976	          6.37418726	          0.15144635	          0.85562132	         -0.00827339	         25.67301559	         -0.65122141	         -1.32139345	        -18.76235772	          4.57251942	          0.40358126	         -6.53297108	          0.82715878	         -0.30140608	        -39.59789321	         -7.02000491	         25.63661286	         -9.98816603	          1.90097177	         -2.98988978	          0.07817456	          0.02855325	          0.00999999	          0.20269722	          0.12910028	          0.06891845	          0.02263761	          0.09594286	          0.00999999	          0.00999999	          0.15144980	          0.00999999	          0.00999999	          0.29105890	          0.26371433	          0.03328609	          0.01183792	          0.01284825	          0.08309141	          0.01090079	          0.02481351	          0.01183793	          0.03783279	          0.01401365	          0.00999999	          0.02311046	          0.06457929	          0.19218924	
